<?xml version="1.0" standalone="no"?>
<!DOCTYPE svg PUBLIC "-//W3C//DTD SVG 20010904//EN"
 "http://www.w3.org/TR/2001/REC-SVG-20010904/DTD/svg10.dtd">
<svg version="1.0" xmlns="http://www.w3.org/2000/svg"
 width="283.000000pt" height="223.000000pt" viewBox="0 0 283.000000 223.000000"
 preserveAspectRatio="xMidYMid meet">
<metadata>
Created by potrace 1.15, written by Peter Selinger 2001-2017
</metadata>
<g transform="translate(0.000000,223.000000) scale(0.100000,-0.100000)"
fill="#000000" stroke="none">
<path d="M0 1115 l0 -1115 1415 0 1415 0 0 1115 0 1115 -1415 0 -1415 0 0
-1115z m1520 960 l0 -85 -90 0 -90 0 0 85 0 85 90 0 90 0 0 -85z m74 -245 c56
-23 129 -90 161 -144 13 -23 33 -85 45 -140 28 -123 53 -157 125 -165 46 -6
48 -7 61 -50 18 -61 45 -86 159 -143 55 -28 114 -62 130 -76 31 -26 77 -83 71
-89 -1 -2 -22 4 -46 12 -50 18 -115 19 -159 4 -29 -10 -35 -9 -60 15 -31 30
-51 32 -161 21 -59 -6 -83 -4 -115 9 -39 16 -39 15 27 -46 63 -59 98 -113 98
-154 0 -15 -3 -15 -23 4 -30 28 -82 49 -167 67 -72 15 -121 35 -152 63 -20 17
-22 14 -8 -22 5 -14 39 -48 75 -77 75 -59 112 -115 122 -184 l6 -49 -43 34
c-54 43 -123 61 -204 53 -76 -7 -113 9 -141 61 -25 45 -40 50 -115 35 -127
-25 -238 4 -299 78 -28 33 -69 138 -59 148 2 2 27 -8 56 -22 61 -30 170 -42
217 -23 28 11 28 13 10 20 -11 5 -33 11 -49 15 -46 10 -83 55 -91 109 -4 27
-18 60 -30 74 -22 25 -27 27 -121 27 -84 0 -104 3 -134 22 -39 24 -47 35 -103
146 -41 81 -82 123 -139 143 l-33 12 28 11 c67 26 152 3 230 -64 43 -37 65
-43 85 -23 31 31 0 83 -67 111 -44 19 -25 30 48 30 69 0 106 -18 191 -93 96
-84 143 -104 216 -90 33 6 36 8 19 15 -51 21 -88 60 -119 129 -32 69 -82 126
-112 126 -21 0 -17 18 7 25 75 24 171 -5 280 -86 73 -54 128 -59 165 -16 37
43 30 89 -20 146 l-21 24 57 -7 c31 -3 77 -15 102 -26z m-74 -1315 l0 -85 -90
0 -90 0 0 85 0 85 90 0 90 0 0 -85z m-1195 -313 l30 -47 5 45 c4 32 10 46 23
48 15 3 17 -6 17 -87 0 -110 -12 -117 -65 -39 l-35 53 0 -53 c0 -45 -3 -52
-20 -52 -19 0 -20 7 -20 90 0 79 2 90 18 90 9 0 30 -20 47 -48z m553 32 c26
-18 30 -65 7 -84 -14 -11 -13 -17 4 -46 l20 -34 -23 0 c-17 0 -27 9 -36 30 -7
17 -19 30 -26 30 -9 0 -14 -11 -14 -30 0 -23 -4 -30 -20 -30 -18 0 -20 7 -20
83 0 46 3 87 7 90 12 13 79 7 101 -9z m680 -4 c42 -40 34 -136 -13 -154 -62
-24 -115 16 -115 86 0 73 77 115 128 68z m270 -18 c3 -26 7 -32 28 -32 21 0
24 5 24 35 0 28 4 35 20 35 19 0 20 -7 20 -90 0 -83 -1 -90 -20 -90 -16 0 -20
7 -20 35 0 31 -3 35 -25 35 -22 0 -25 -4 -25 -35 0 -28 -4 -35 -20 -35 -19 0
-20 7 -20 91 0 81 2 90 18 87 11 -2 18 -14 20 -36z m643 -14 l34 -53 3 53 c2
37 7 52 18 52 11 0 14 -18 14 -90 0 -109 -12 -116 -65 -38 l-35 53 0 -53 c0
-45 -3 -52 -20 -52 -19 0 -20 7 -20 90 0 82 2 90 19 90 12 0 31 -19 52 -52z"/>
<path d="M1340 1295 l0 -85 90 0 90 0 0 85 0 85 -90 0 -90 0 0 -85z"/>
</g>
</svg>
